<svg width="18" height="18" viewBox="0 0 18 18" fill="none" xmlns="http://www.w3.org/2000/svg">
<g clip-path="url(#clip0_55027_16516)">
<path d="M0 6.4502H18V11.5502H0V6.4502Z" fill="#EEEEEE"/>
<path d="M18 13.5C18 14.0304 17.7893 14.5391 17.4142 14.9142C17.0391 15.2893 16.5304 15.5 16 15.5H2C1.46957 15.5 0.960859 15.2893 0.585786 14.9142C0.210714 14.5391 0 14.0304 0 13.5V11.5H18V13.5Z" fill="#171796"/>
<path d="M16 2.5H2C1.46957 2.5 0.960859 2.71071 0.585786 3.08579C0.210714 3.46086 0 3.96957 0 4.5L0 6.5H18V4.5C18 3.96957 17.7893 3.46086 17.4142 3.08579C17.0391 2.71071 16.5304 2.5 16 2.5Z" fill="#D52B1E"/>
<path d="M5.70508 3.71777V9.48477C5.70508 10.3588 6.05228 11.197 6.67031 11.815C7.28833 12.4331 8.12656 12.7803 9.00058 12.7803C9.8746 12.7803 10.7128 12.4331 11.3308 11.815C11.9489 11.197 12.2961 10.3588 12.2961 9.48477V3.71777H5.70508Z" fill="#D52B1E"/>
<path d="M7.12558 9H8.37558V10.25H7.12558V9ZM8.37558 10.25H9.62558V11.5H8.37558V10.25ZM8.37558 7.75H9.62558V9H8.37558V7.75ZM9.62558 9H10.8756V10.25H9.62558V9ZM9.62558 6.5H10.8756V7.75H9.62558V6.5ZM10.8756 7.75H12.0461V9H10.8756V7.75ZM7.12558 6.5H8.37558V7.75H7.12558V6.5ZM10.8756 11.5H11.2781C11.5954 11.1415 11.8239 10.7132 11.9451 10.25H10.8756V11.5ZM9.62558 11.5V12.4655C10.0815 12.3684 10.5091 12.1681 10.8756 11.88V11.5H9.62558ZM7.12558 11.5V10.25H6.05608C6.17721 10.7132 6.40571 11.1415 6.72308 11.5H7.12558ZM5.95508 7.75H7.12558V9H5.95508V7.75ZM7.12558 11.5V11.88C7.49203 12.1681 7.91964 12.3684 8.37558 12.4655V11.5H7.12558Z" fill="white"/>
<path d="M12.3775 4.07061L11.3785 4.46611L10.7145 3.62511L9.80005 4.18811L8.99905 3.47461L8.19755 4.18861L7.28455 3.62461L6.61905 4.46661L5.62155 4.07011L5.06055 5.11011L5.72605 6.54111L5.81405 6.50011C6.20405 6.31861 6.61555 6.16911 7.03555 6.05611L7.05555 6.05061C7.46884 5.93959 7.89088 5.86415 8.31705 5.82511L8.34905 5.82211C8.70155 5.79211 9.29705 5.79211 9.64955 5.82211L9.67855 5.82461C10.0905 5.86161 10.5175 5.93761 10.9465 6.05111L10.963 6.05561C11.381 6.16811 11.792 6.31761 12.1835 6.50011L12.271 6.54111L12.9365 5.11061L12.3775 4.07061Z" fill="#171796"/>
<path d="M8.31834 4.34039L8.42884 5.62189C8.59384 5.60889 8.79334 5.59639 8.99934 5.59639C9.20534 5.59639 9.40484 5.60889 9.56984 5.62189L9.68034 4.34039L8.99934 3.73389L8.31834 4.34039ZM12.2888 4.31389L11.4398 4.65039L11.1058 5.89489C11.4713 5.99789 11.8308 6.12889 12.1778 6.28439L12.7208 5.11639L12.2888 4.31389ZM5.71034 4.31289L5.27734 5.11589L5.82084 6.28389C6.16584 6.12889 6.52534 5.99789 6.89284 5.89439L6.55784 4.64939L5.71034 4.31289Z" fill="#0193DD"/>
</g>
<defs>
<clipPath id="clip0_55027_16516">
<rect width="18" height="18" fill="white"/>
</clipPath>
</defs>
</svg>
